<?xml version="1.0" encoding="utf-8"?>
<!-- Generator: Adobe Illustrator 23.0.6, SVG Export Plug-In . SVG Version: 6.00 Build 0)  -->
<svg version="1.1" id="Layer_1" xmlns="http://www.w3.org/2000/svg" xmlns:xlink="http://www.w3.org/1999/xlink" x="0px" y="0px"
	 viewBox="0 0 154.6499023 112.2515945" style="enable-background:new 0 0 154.6499023 112.2515945;" xml:space="preserve">
<style type="text/css">
	.st0{fill:#8C9BDD;}
	.st1{fill:#6A6AB0;}
	.st2{fill:none;stroke:#4271B7;stroke-width:2;stroke-linecap:round;stroke-linejoin:round;stroke-miterlimit:10;}
	.st3{fill:#C4D3F7;}
	.st4{fill:#D1DDFF;}
	.st5{fill:#F05C4C;}
	.st6{fill:#DD6054;}
	.st7{fill:#F4F4F4;}
	.st8{fill:#EF8D78;}
	.st9{fill:#EC6F5E;}
</style>
<g>
	<g>
		<path class="st0" d="M97.3294601,42.7000694c0,14.0739746,0.863205,18.0505905-8.254837,18.0505905
			c-3.6722107,0-21.4226761,1.689846-24.7645264,0c-4.955925-2.5060234-3.0955658-8.4943962-4.1274223-18.0505905
			c-1.8231888-16.8848839,9.455349-25.4831886,18.573391-25.4831886S97.3294601,28.6260929,97.3294601,42.7000694z"/>
	</g>
	<polygon class="st1" points="38.3576889,112.2515945 38.1588745,66.4713058 50.3014488,66.4185638 44.0646439,111.5820007 	"/>
	<path class="st2" d="M64.9175034,59.0611839"/>
	<polyline class="st3" points="58.5006218,65.7769394 104.4719086,65.7769394 110.2183228,60.4515076 57.3513374,60.4515076 	"/>
	<path class="st2" d="M65.2183228,66.4515076"/>
	<path class="st4" d="M1.2183224,62.4515076c0,0-8-45,17-45s62,0,62,0s-29-2-15,49
		C2.2183225,66.4515076,1.2183224,62.4515076,1.2183224,62.4515076z"/>
	<path class="st1" d="M30.9481335,0.0308027l-8.4426308,0.985896l-0.496624,0.0579939l-4.4696293,0.521945l3.4796333,29.7975197
		l4.9662533-0.5799389L23.5493927,9.9559546l8.4426308-0.9858961c2.4685783-0.28827,4.2359543-2.5229959,3.9476814-4.9915729
		C35.6514359,1.5099087,33.4167099-0.2574677,30.9481335,0.0308027z"/>
	<g>
		<path class="st5" d="M143.9268341,73.696991c-1.6655731-0.3342743-3.026947-0.8987198-4.0818024-1.6921768
			c-1.056015-0.7957764-1.8009033-1.7904892-2.2427368-2.9876175c-0.4395294-1.1971359-0.5887451-2.5596619-0.4441528-4.0841293
			c0.0289154-0.2220764,0.071701-0.5135498,0.1272278-0.8744202c0.0555115-0.3608742,0.1249237-0.7448845,0.2058868-1.1497078
			c0.0809631-0.4048271,0.1642456-0.7830505,0.2521515-1.1381416c0.0878906-0.3550911,0.1596069-0.6315308,0.2151337-0.8327866
			c0.3203888-1.0351982,0.7737885-1.9570465,1.3567352-2.7632294c0.5818024-0.8061867,1.2757874-1.4562225,2.0785065-1.9512672
			c0.8038635-0.4938889,1.7141418-0.817749,2.7319946-0.9704247c1.0190125-0.1515236,2.1421204-0.1052551,3.3727875,0.1422653
			c1.415741,0.2833786,2.6093903,0.6928329,3.5786743,1.2260475c0.9704132,0.5366859,1.7384338,1.1832504,2.3063507,1.9454803
			c0.5690613,0.7610741,0.9426575,1.6216202,1.1231079,2.5816383c0.1792755,0.9577026,0.1908417,1.9963722,0.0312195,3.1136932
			c-0.0508881,0.410614-0.1156616,0.8200607-0.1966248,1.2248917c-0.0821228,0.4048233-0.1607819,0.7726364-0.2348022,1.105751
			c-0.0751801,0.3342743-0.1353302,0.5748596-0.1815948,0.7286911c-0.1989441,0.7541351-0.4846344,1.3613739-0.8512878,1.8217163
			c-0.3678131,0.46035-0.8073425,0.7714844-1.3162689,0.9380417c-0.5112305,0.1642456-1.0791473,0.1827545-1.7002716,0.0589905
			c-0.5147095-0.1040955-0.9334106-0.2752838-1.2572784-0.5181808c-0.3238525-0.2428894-0.5655975-0.4904175-0.7252197-0.7402496
			c-0.1607666-0.2521515-0.2741241-0.4487839-0.3446808-0.5922012c-0.1642456,0.1781235-0.3851624,0.3689651-0.6604462,0.5725403
			c-0.2752686,0.2035675-0.6257324,0.3527756-1.0479126,0.4453049c-0.4244995,0.093689-0.9472961,0.0763397-1.5695801-0.0485764
			c-1.1520081-0.2313309-1.9871216-0.8258514-2.5064545-1.7881775c-0.5204926-0.9623337-0.6280518-2.2057266-0.3215485-3.732502
			c0.3053589-1.5244598,0.8848419-2.6360016,1.7372894-3.3311462c0.8512878-0.6951447,1.852951-0.9287872,3.0049744-0.6974564
			c0.6384735,0.1283875,1.1184692,0.3458366,1.4353943,0.6523476c0.3192291,0.3076706,0.5598145,0.6222763,0.7205963,0.9461365
			l0.0798035-0.3967285c0.0312347-0.1549911,0.1087341-0.2741241,0.2301788-0.3550911
			c0.1214447-0.0798073,0.2602386-0.106411,0.4152374-0.0751801l0.6303711,0.1260719
			c0.1549835,0.0323868,0.2741241,0.1087265,0.3550873,0.230175s0.1052551,0.2602463,0.0740204,0.4152374l-0.9970245,4.9735832
			c-0.1341705,0.668541-0.093689,1.1971283,0.1214447,1.5788193c0.2139893,0.3828506,0.5320587,0.6164932,0.9530792,0.6997757
			c0.4187012,0.0844345,0.7575989,0.0312271,1.0143738-0.1596146c0.2590942-0.1908493,0.4522552-0.4395294,0.5875854-0.7448807
			c0.1341705-0.3053589,0.2220764-0.5667572,0.2660217-0.7842102c0.0624695-0.2301712,0.1526794-0.6003036,0.2706604-1.1103821
			c0.117981-0.5112381,0.213974-1.0664291,0.28685-1.6678848c0.1526794-1.248024,0.0763397-2.3410568-0.2301788-3.2756271
			c-0.3065033-0.9380417-0.8952332-1.7187767-1.7638855-2.3456802c-0.8709564-0.6292152-2.0842743-1.0988159-3.6399689-1.4099541
			c-1.2769318-0.255619-2.4139252-0.2452087-3.407486,0.0323868c-0.9947052,0.2787514-1.8379059,0.7853622-2.5272675,1.5221481
			c-0.6905212,0.7367859-1.2237396,1.6817665-1.6007996,2.8361015c-0.0844421,0.2602425-0.1781311,0.6280594-0.2822266,1.1092224
			c-0.1052551,0.4811668-0.2035675,0.9669571-0.2937927,1.4596901c-0.0890503,0.4915733-0.1503601,0.8883018-0.1781158,1.191349
			c-0.1711884,1.8263474,0.193161,3.3380814,1.0964966,4.5294266c0.9021912,1.1936646,2.3260193,1.9848099,4.2714996,2.3745956
			c1.1207886,0.2243958,2.0276031,0.3134537,2.7146606,0.2660294c0.6916656-0.0474167,1.2352905-0.1573029,1.6331787-0.3284836
			c0.3978882-0.1711884,0.7240601-0.3134537,0.9727478-0.4244919c0.0890503-0.0462646,0.1885223-0.0971603,0.2949371-0.1480484
			c0.1087341-0.049736,0.2336426-0.0624619,0.3724365-0.0346985l0.9345703,0.1873779
			c0.1388092,0.0277557,0.2498474,0.1029358,0.3308105,0.2255402c0.0809631,0.1214523,0.1075592,0.2509918,0.0786438,0.3909531
			c-0.0115662,0.0624542-0.0346985,0.1179733-0.069397,0.1677094c-0.0346985,0.0508957-0.0798035,0.0948486-0.1353302,0.1318588
			c-0.4962006,0.3701248-1.0860901,0.6928329-1.7731323,0.9681168c-0.6870575,0.2752762-1.4943848,0.4453049-2.4220276,0.5100784
			C146.2586365,74.0382004,145.1713867,73.9468231,143.9268341,73.696991z M144.9203949,67.6535034
			c0.8246918,0.1642456,1.4608459-0.0023117,1.9096222-0.5031357c0.4487915-0.5008316,0.766861-1.2260513,0.9577026-2.1768112
			c0.1896973-0.9484558,0.1769714-1.7453842-0.041626-2.3884811c-0.220932-0.6419373-0.742569-1.0456085-1.5672607-1.2121658
			c-0.7946167-0.1584587-1.4203644,0.0161934-1.877243,0.5216484c-0.4580231,0.5077667-0.7818909,1.2364578-0.9727325,2.1849098
			c-0.1121979,0.5609741-0.1422729,1.0941849-0.0890656,1.5984879c0.0532074,0.5031357,0.2128143,0.932251,0.4811554,1.2861862
			C143.9916077,67.3180771,144.3906555,67.5470963,144.9203949,67.6535034z"/>
	</g>
	<g>
		<path class="st1" d="M99.8490601,95.3696365c-1.3769531,0.4042969-2.6152344,0.515625-3.7148438,0.3349609
			c-1.1015625-0.1787109-2.0498047-0.6308594-2.8496094-1.3525391c-0.7988281-0.7226563-1.4433594-1.6816406-1.9355469-2.8798828
			c-0.0644531-0.1757813-0.1474609-0.4101563-0.2470703-0.7021484s-0.1982422-0.6054688-0.2958984-0.9394531
			c-0.0986328-0.3359375-0.1845703-0.6513672-0.2587891-0.9511719c-0.0742188-0.2988281-0.1279297-0.5341797-0.1660156-0.7060547
			c-0.1669922-0.9003906-0.1894531-1.7675781-0.0703125-2.5986328s0.3828125-1.5888672,0.7890625-2.2744141
			c0.4072266-0.6845703,0.9609375-1.2841797,1.6621094-1.7978516c0.7011719-0.5117188,1.5595703-0.9179688,2.5761719-1.2167969
			c1.1708984-0.3427734,2.2236328-0.5058594,3.1582031-0.4873047c0.9335938,0.0205078,1.7626953,0.203125,2.4873047,0.5488281
			c0.7226563,0.3476563,1.3398438,0.8427734,1.8505859,1.4892578c0.5107422,0.6474609,0.9267578,1.4189453,1.2460938,2.3173828
			c0.1240234,0.3261719,0.234375,0.6572266,0.3330078,0.9921875c0.0976563,0.3339844,0.1835938,0.6416016,0.2597656,0.9189453
			c0.0742188,0.2783203,0.1230469,0.4833984,0.1484375,0.6162109c0.1474609,0.6416016,0.171875,1.2070313,0.0791016,1.6953125
			c-0.0947266,0.4892578-0.3007813,0.8935547-0.6171875,1.2177734c-0.3173828,0.3232422-0.7333984,0.5605469-1.2470703,0.7109375
			c-0.4257813,0.125-0.8066406,0.1601563-1.1425781,0.1064453c-0.3378906-0.0546875-0.6152344-0.1455078-0.8339844-0.2685547
			c-0.21875-0.1259766-0.3808594-0.2285156-0.4882813-0.3076172c-0.0546875,0.1972656-0.1445313,0.4267578-0.2705078,0.6865234
			c-0.1259766,0.2607422-0.3291016,0.5087891-0.6083984,0.7441406c-0.28125,0.2363281-0.6777344,0.4296875-1.1933594,0.5800781
			c-0.9511719,0.2792969-1.8095703,0.1621094-2.5751953-0.3544922c-0.7666016-0.5146484-1.3339844-1.4023438-1.7041016-2.6640625
			c-0.3701172-1.2607422-0.3730469-2.3173828-0.0078125-3.171875c0.3632813-0.8535156,1.0205078-1.4208984,1.9716797-1.7001953
			c0.5283203-0.1542969,0.9716797-0.1796875,1.3300781-0.0761719c0.359375,0.1054688,0.6621094,0.2470703,0.9101563,0.4257813
			l-0.0966797-0.328125c-0.0371094-0.1279297-0.0253906-0.2480469,0.0332031-0.3554688
			c0.0585938-0.1083984,0.1533203-0.1816406,0.28125-0.21875l0.5214844-0.1533203
			c0.1279297-0.0380859,0.2460938-0.0263672,0.3554688,0.0322266c0.1074219,0.0585938,0.1796875,0.1542969,0.2177734,0.2822266
			l1.2060547,4.109375c0.1621094,0.5527344,0.3994141,0.9306641,0.7099609,1.1318359
			c0.3105469,0.203125,0.6396484,0.2529297,0.9873047,0.1503906c0.3466797-0.1015625,0.5791016-0.2744141,0.6953125-0.5185547
			c0.1181641-0.2441406,0.1660156-0.5058594,0.1464844-0.7871094c-0.0185547-0.2802734-0.0546875-0.5107422-0.1074219-0.6904297
			c-0.0449219-0.1972656-0.1220703-0.5097656-0.2333984-0.9375c-0.1132813-0.4277344-0.2587891-0.8808594-0.4404297-1.3583984
			c-0.3759766-0.9931641-0.8613281-1.7802734-1.4580078-2.359375c-0.5966797-0.5800781-1.3417969-0.9326172-2.2392578-1.0615234
			c-0.8964844-0.1279297-1.9882813-0.0029297-3.2744141,0.3740234c-1.0546875,0.3095703-1.8994141,0.7636719-2.5341797,1.3623047
			c-0.6347656,0.5976563-1.0644531,1.3076172-1.2929688,2.1289063c-0.2265625,0.8212891-0.2539063,1.7373047-0.0830078,2.7490234
			c0.0390625,0.2265625,0.1123047,0.5400391,0.2236328,0.9404297c0.1103516,0.3994141,0.2285156,0.8017578,0.3535156,1.2050781
			c0.125,0.4023438,0.2373047,0.7236328,0.3339844,0.9609375c0.5888672,1.4335938,1.4541016,2.4189453,2.5966797,2.9570313
			c1.1435547,0.5371094,2.5175781,0.5703125,4.1259766,0.0986328c0.9257813-0.2714844,1.6367188-0.5615234,2.1337891-0.8662109
			c0.4980469-0.3066406,0.8623047-0.6035156,1.0917969-0.8867188c0.2314453-0.2851563,0.4189453-0.5175781,0.5605469-0.6982422
			c0.0478516-0.0712891,0.1035156-0.1464844,0.1640625-0.2265625c0.0595703-0.0800781,0.1474609-0.1376953,0.2626953-0.171875
			l0.7734375-0.2265625c0.1152344-0.0341797,0.2265625-0.0205078,0.3349609,0.0371094
			c0.1074219,0.0595703,0.1787109,0.1455078,0.2128906,0.2626953c0.0146484,0.0507813,0.0195313,0.1015625,0.0136719,0.1523438
			s-0.0224609,0.1015625-0.0498047,0.1523438c-0.2255859,0.4707031-0.5410156,0.9433594-0.9453125,1.4179688
			c-0.40625,0.4755859-0.9423828,0.9199219-1.6103516,1.3320313
			C101.7269897,94.7104568,100.8783569,95.0678787,99.8490601,95.3696365z M98.2201538,90.4614334
			c0.6816406-0.1992188,1.0908203-0.5732422,1.2304688-1.125c0.1386719-0.5507813,0.0927734-1.2177734-0.1376953-2.0029297
			c-0.2304688-0.7841797-0.5537109-1.375-0.9697266-1.7685547c-0.4160156-0.3945313-0.9648438-0.4921875-1.6464844-0.2929688
			c-0.6552734,0.1933594-1.0546875,0.5683594-1.1992188,1.1269531c-0.1425781,0.5585938-0.0986328,1.2314453,0.1318359,2.015625
			c0.1357422,0.4628906,0.3212891,0.8740234,0.5595703,1.2294922c0.2363281,0.3564453,0.5253906,0.6142578,0.8652344,0.7724609
			C97.3949585,90.5756912,97.7826538,90.5903397,98.2201538,90.4614334z"/>
	</g>
	<g>
		<path class="st6" d="M118.9551468,48.7920876l5.113739-20.7411976c0,0,0,0,0.0001526-0.000618l0.0007172-0.0029049
			c0.0037994-0.0153904,0.0067368-0.0272846,0.0073471-0.0402527c0.0309982-0.1564655,0.014473-0.3238602-0.0590973-0.4790745
			c-0.0284729-0.0578499-0.0612564-0.1086712-0.1020966-0.1570835l-2.6811218-3.5683308l-2.7783966,0.0710545l-6.2575607-0.3227882
			l-19.6651459-8.2343807c-0.240181,0.0971422-7.0299377,2.9754314-7.0873413,3.2082691l-5.1146011,20.7447205
			c-0.5128174,2.0800476,0.7620773,4.1884842,2.8415375,4.7011604l31.0806961,7.6629295
			C116.3332977,52.1462593,118.4423065,50.8721237,118.9551468,48.7920876z"/>
		<path class="st7" d="M117.3101273,39.5029907l5.7056351-23.1419735c0.7576981-3.0732193,0.1596985-5.0112658-1.0891266-5.3191643
			L95.9762573,4.643774c-1.2488174-0.307898-2.6791687,1.1300569-3.1905289,3.2041054L86.58741,32.9881973"/>
		<path class="st8" d="M118.9551468,48.7920876l5.113739-20.7411976c0,0,0,0,0.0001526-0.000618l0.0007172-0.0029049
			c0.0037994-0.0153904,0.0067368-0.0272846,0.0073471-0.0402527c0.0309982-0.1564655,0.014473-0.3238602-0.0590973-0.4790745
			c-0.0284729-0.0578499-0.0612564-0.1086712-0.1020966-0.1570835l-0.071022,0.1215744l-33.882782,18.1519203l24.2918701,5.9891396
			C116.3332977,52.1462593,118.4423065,50.8721237,118.9551468,48.7920876z"/>
		<path class="st8" d="M85.6623077,18.5161972l21.8815765,31.5019417L83.2477646,44.046257
			c-2.079689-0.5111656-3.3562164-2.6187286-2.8448792-4.699131l5.0209351-20.3854237c0,0,0.0780411-0.3594074,0.0781937-0.3600254
			L85.6623077,18.5161972C85.8218918,18.4336243,85.6568298,18.5279655,85.6623077,18.5161972"/>
		<path class="st9" d="M102.1815262,32.3874435c-0.3298645-0.0158653-0.6660614,0.0329552-0.9878311,0.1623344l-15.1352463,5.587616
			l-5.8353424,2.0810242c0.0089111,1.7375069,1.1884079,3.3179092,2.9501724,3.752243l31.0806961,7.6629295
			c1.6112061,0.3972588,3.2367783-0.2812004,4.1271896-1.5732803l-5.181633-5.7325783l-9.3493652-11.1229897
			c-0.3729095-0.4382782-0.8796463-0.7053108-1.4189529-0.7901955"/>
		<path class="st6" d="M91.5797348,17.0985298"/>
		<g>
			<path class="st9" d="M110.8605881,23.1799221c-0.1548691,0.628149-0.3954544,1.1779709-0.7214813,1.6496906
				c-0.3257599,0.4719467-0.703476,0.808609-1.1331863,1.0101395c-0.4294052,0.2016068-0.8791504,0.2445412-1.3488922,0.128727
				c-0.3472824-0.0856209-0.6254959-0.2521305-0.8346939-0.4993744s-0.3186569-0.5398617-0.3284302-0.8777008l-0.0792084-0.0195274
				c-0.2995224,0.2895336-0.6288223,0.4809227-0.9872742,0.574316c-0.3584595,0.0933952-0.7353745,0.0912724-1.1304779-0.0061417
				c-0.7161942-0.1765766-1.2226028-0.5460548-1.5195313-1.108511c-0.296936-0.562458-0.3485107-1.23666-0.1546631-2.0229149
				c0.2231064-0.9049091,0.6765671-1.5723839,1.3603821-2.0024223c0.6835556-0.4302673,1.4845581-0.532177,2.4027176-0.3058052
				c0.3335724,0.082243,0.6963806,0.2031994,1.08815,0.3626423c0.3917313,0.1595955,0.7327499,0.3309231,1.0229721,0.514286
				l-0.9003601,3.0279312l-0.0389786,0.1581039c-0.1732712,0.7027855-0.0314331,1.110508,0.425209,1.2230949
				c0.3469772,0.0855465,0.6779099-0.0705395,0.9927597-0.4681034c0.3145523-0.3976402,0.5573883-0.9435101,0.7284851-1.6374626
				c0.185173-0.75107,0.1940536-1.4489822,0.0269394-2.0936661c-0.1671448-0.6445293-0.4962921-1.1903687-0.9870834-1.6375923
				c-0.4908295-0.447073-1.1029892-0.7611904-1.836235-0.9419727c-0.9358292-0.2307281-1.7971573-0.2380486-2.5842514-0.022192
				c-0.7868195,0.2160854-1.4512253,0.6381474-1.9929276,1.2664146c-0.5417099,0.6282654-0.9293747,1.4168243-1.1632919,2.3656006
				c-0.314064,1.2738171-0.2152557,2.3371029,0.2966461,3.1902351c0.5116272,0.8529072,1.4046936,1.4366341,2.67836,1.7506561
				c0.9705582,0.2392902,2.0318985,0.2912407,3.1836777,0.1559258l-0.2663651,1.0803757
				c-1.0155563,0.1503201-2.0658875,0.0917149-3.1506805-0.1757412c-1.625206-0.4006939-2.7844696-1.1511993-3.4774475-2.2515926
				c-0.6932831-1.1004658-0.8467712-2.4347839-0.4601593-4.0028763c0.2826309-1.146328,0.7802658-2.1057014,1.4926529-2.8783455
				c0.7123413-0.7724934,1.5627975-1.2886066,2.5515976-1.5479622c0.9887924-0.2593555,2.0346146-0.2532425,3.1370773,0.018568
				c0.9528885,0.2349358,1.7534561,0.6420383,2.4002228,1.2207851c0.6470261,0.5789738,1.0857391,1.2846394,1.316391,2.1172276
				C111.0995255,21.3274021,111.0966492,22.2224636,110.8605881,23.1799221z M103.8810883,22.3468189
				c-0.252327,1.0234108,0.0236511,1.6341801,0.8272705,1.8323116c0.8474808,0.2089481,1.4697571-0.3201218,1.8662872-1.5876637
				l0.4671249-1.5551891c-0.2585068-0.1429062-0.5454102-0.2532272-0.861618-0.3311882
				c-0.5623474-0.1386471-1.0464478-0.0599117-1.4528732,0.2359047
				C104.3214645,21.2369595,104.0391846,21.7055683,103.8810883,22.3468189z"/>
		</g>
	</g>
</g>
</svg>
